<?xml version="1.0" encoding="UTF-8" standalone="no"?>
<!-- Created with Inkscape (http://www.inkscape.org/) -->

<svg
   width="210mm"
   height="297mm"
   viewBox="0 0 210 297"
   version="1.1"
   id="svg1"
   inkscape:version="1.3.2 (091e20e, 2023-11-25)"
   sodipodi:docname="thinsimple.svg"
   xmlns:inkscape="http://www.inkscape.org/namespaces/inkscape"
   xmlns:sodipodi="http://sodipodi.sourceforge.net/DTD/sodipodi-0.dtd"
   xmlns="http://www.w3.org/2000/svg"
   xmlns:svg="http://www.w3.org/2000/svg">
  <sodipodi:namedview
     id="namedview1"
     pagecolor="#ffffff"
     bordercolor="#000000"
     borderopacity="0.25"
     inkscape:showpageshadow="2"
     inkscape:pageopacity="0.0"
     inkscape:pagecheckerboard="0"
     inkscape:deskcolor="#d1d1d1"
     inkscape:document-units="mm"
     inkscape:zoom="0.40339795"
     inkscape:cx="541.64876"
     inkscape:cy="867.62959"
     inkscape:window-width="1248"
     inkscape:window-height="809"
     inkscape:window-x="222"
     inkscape:window-y="37"
     inkscape:window-maximized="0"
     inkscape:current-layer="layer1" />
  <defs
     id="defs1" />
  <g
     inkscape:label="Layer 1"
     inkscape:groupmode="layer"
     id="layer1">
    <path
       sodipodi:nodetypes="czzc"
       inkscape:connector-curvature="0"
       id="path881"
       d="m 22.181249,228.181 c 0,0 41.866069,-17.68966 60.428989,-20.79402 18.562922,-3.10436 30.557472,-2.7185 49.017642,6.5e-4 18.46017,2.71915 60.26563,18.14689 60.26563,18.14689"
       style="opacity:0.17;fill:none;stroke:#0032a5;stroke-width:65;stroke-linecap:round;stroke-linejoin:miter;stroke-miterlimit:4;stroke-dasharray:none;stroke-opacity:1"
       inkscape:export-xdpi="96"
       inkscape:export-ydpi="96"
       inkscape:export-filename="thinsimple.png" />
    <path
       sodipodi:nodetypes="caac"
       inkscape:connector-curvature="0"
       id="path879"
       d="m 101.55666,104.20208 c 0,0 0.0351,43.47024 7.53615,63.37929 3.04942,8.09365 8.25861,15.60947 14.69982,21.38156 19.18908,17.19569 68.10088,36.57159 68.10088,36.57159"
       style="opacity:0.24;fill:none;stroke:#00a523;stroke-width:65;stroke-linecap:round;stroke-linejoin:miter;stroke-miterlimit:4;stroke-dasharray:none;stroke-opacity:1"
       inkscape:export-xdpi="96"
       inkscape:export-ydpi="96" />
    <path
       sodipodi:nodetypes="czzc"
       inkscape:connector-curvature="0"
       id="path877"
       d="m 101.55666,104.20208 c 0,0 -3.501232,48.04077 -11.339292,65.01191 -7.83806,16.97113 -17.96563,25.58764 -29.48214,35.52976 -11.516507,9.94212 -38.553569,23.43452 -38.553569,23.43452"
       style="opacity:0.19;fill:none;stroke:#a50146;stroke-width:65;stroke-linecap:round;stroke-linejoin:miter;stroke-miterlimit:4;stroke-dasharray:none;stroke-opacity:1"
       inkscape:export-xdpi="96"
       inkscape:export-ydpi="96" />
    <g
       id="g938"
       inkscape:export-xdpi="96"
       inkscape:export-ydpi="96"
       transform="translate(-41.112662,-22.243558)">
      <path
         inkscape:export-ydpi="96"
         inkscape:export-xdpi="96"
         sodipodi:nodetypes="czzc"
         inkscape:connector-curvature="0"
         id="path53"
         d="m 142.66932,126.44564 c 0,0 -3.50123,48.04077 -11.33929,65.01191 -7.83806,16.97113 -17.96563,25.58764 -29.48214,35.52976 -11.516507,9.94212 -38.553569,23.43452 -38.553569,23.43452"
         style="fill:none;stroke:#756969;stroke-width:1.25;stroke-linecap:round;stroke-linejoin:miter;stroke-miterlimit:4;stroke-dasharray:none;stroke-opacity:1" />
      <path
         inkscape:export-ydpi="96"
         inkscape:export-xdpi="96"
         sodipodi:nodetypes="caac"
         inkscape:connector-curvature="0"
         id="path875"
         d="m 142.66932,126.44564 c 0,0 0.0351,43.47024 7.53615,63.37929 3.04942,8.09365 8.25861,15.60947 14.69982,21.38156 19.18908,17.19569 68.10088,36.57159 68.10088,36.57159"
         style="fill:none;stroke:#756969;stroke-width:1.25;stroke-linecap:round;stroke-linejoin:miter;stroke-miterlimit:4;stroke-dasharray:none;stroke-opacity:1" />
      <path
         inkscape:export-ydpi="96"
         inkscape:export-xdpi="96"
         sodipodi:nodetypes="czzc"
         inkscape:connector-curvature="0"
         id="path55"
         d="m 63.293911,250.42456 c 0,0 41.866069,-17.68966 60.428989,-20.79402 18.56292,-3.10436 30.55747,-2.7185 49.01764,6.5e-4 18.46017,2.71915 60.26563,18.14689 60.26563,18.14689"
         style="fill:none;stroke:#756969;stroke-width:1.25;stroke-linecap:round;stroke-linejoin:miter;stroke-miterlimit:4;stroke-dasharray:none;stroke-opacity:1" />
    </g>
  </g>
</svg>
